<svg width="64" height="64" viewBox="0 0 64 64" fill="none" xmlns="http://www.w3.org/2000/svg">
<path d="M13.3335 15.333C13.3335 14.2284 14.2289 13.333 15.3335 13.333H24.6668C25.7714 13.333 26.6668 14.2284 26.6668 15.333V16.6663C26.6668 17.7709 25.7714 18.6663 24.6668 18.6663H20.6668C19.5623 18.6663 18.6668 19.5618 18.6668 20.6663V24.6663C18.6668 25.7709 17.7714 26.6663 16.6668 26.6663H15.3335C14.2289 26.6663 13.3335 25.7709 13.3335 24.6663V15.333ZM37.3335 15.333C37.3335 14.2284 38.2289 13.333 39.3335 13.333H48.6668C49.7714 13.333 50.6668 14.2284 50.6668 15.333V24.6663C50.6668 25.7709 49.7714 26.6663 48.6668 26.6663H47.3335C46.2289 26.6663 45.3335 25.7709 45.3335 24.6663V20.6663C45.3335 19.5618 44.4381 18.6663 43.3335 18.6663H39.3335C38.2289 18.6663 37.3335 17.7709 37.3335 16.6663V15.333ZM45.3335 39.333C45.3335 38.2284 46.2289 37.333 47.3335 37.333H48.6668C49.7714 37.333 50.6668 38.2284 50.6668 39.333V48.6663C50.6668 49.7709 49.7714 50.6663 48.6668 50.6663H39.3335C38.2289 50.6663 37.3335 49.7709 37.3335 48.6663V47.333C37.3335 46.2284 38.2289 45.333 39.3335 45.333H43.3335C44.4381 45.333 45.3335 44.4376 45.3335 43.333V39.333ZM24.6668 45.333C25.7714 45.333 26.6668 46.2284 26.6668 47.333V48.6663C26.6668 49.7709 25.7714 50.6663 24.6668 50.6663H15.3335C14.2289 50.6663 13.3335 49.7709 13.3335 48.6663V39.333C13.3335 38.2284 14.2289 37.333 15.3335 37.333H16.6668C17.7714 37.333 18.6668 38.2284 18.6668 39.333V43.333C18.6668 44.4376 19.5623 45.333 20.6668 45.333H24.6668Z" fill="white"/>
</svg>
