<svg width="64" height="64" viewBox="0 0 64 64" fill="none" xmlns="http://www.w3.org/2000/svg">
<path d="M37.3335 39.333C37.3335 38.2284 38.2289 37.333 39.3335 37.333H48.6668C49.7714 37.333 50.6668 38.2284 50.6668 39.333V40.6663C50.6668 41.7709 49.7714 42.6663 48.6668 42.6663H44.6668C43.5623 42.6663 42.6668 43.5618 42.6668 44.6663V48.6663C42.6668 49.7709 41.7714 50.6663 40.6668 50.6663H39.3335C38.2289 50.6663 37.3335 49.7709 37.3335 48.6663V39.333ZM13.3335 39.333C13.3335 38.2284 14.2289 37.333 15.3335 37.333H24.6668C25.7714 37.333 26.6668 38.2284 26.6668 39.333V48.6663C26.6668 49.7709 25.7714 50.6663 24.6668 50.6663H23.3335C22.2289 50.6663 21.3335 49.7709 21.3335 48.6663V44.6663C21.3335 43.5618 20.4381 42.6663 19.3335 42.6663H15.3335C14.2289 42.6663 13.3335 41.7709 13.3335 40.6663V39.333ZM21.3335 15.333C21.3335 14.2284 22.2289 13.333 23.3335 13.333H24.6668C25.7714 13.333 26.6668 14.2284 26.6668 15.333V24.6663C26.6668 25.7709 25.7714 26.6663 24.6668 26.6663H15.3335C14.2289 26.6663 13.3335 25.7709 13.3335 24.6663V23.333C13.3335 22.2284 14.2289 21.333 15.3335 21.333H19.3335C20.4381 21.333 21.3335 20.4376 21.3335 19.333V15.333ZM48.6668 21.333C49.7714 21.333 50.6668 22.2284 50.6668 23.333V24.6663C50.6668 25.7709 49.7714 26.6663 48.6668 26.6663H39.3335C38.2289 26.6663 37.3335 25.7709 37.3335 24.6663V15.333C37.3335 14.2284 38.2289 13.333 39.3335 13.333H40.6668C41.7714 13.333 42.6668 14.2284 42.6668 15.333V19.333C42.6668 20.4376 43.5623 21.333 44.6668 21.333H48.6668Z" fill="white"/>
</svg>
