<svg width="48" height="48" viewBox="0 0 48 48" fill="none" xmlns="http://www.w3.org/2000/svg">
<path d="M19.65 42C17.55 42 15.775 41.275 14.325 39.825C12.875 38.375 12.15 36.6 12.15 34.5C12.15 32.4 12.875 30.625 14.325 29.175C15.775 27.725 17.55 27 19.65 27C20.5834 27 21.425 27.1333 22.175 27.4V27.4C23.0289 27.7036 24.15 27.134 24.15 26.2278V8C24.15 6.89543 25.0455 6 26.15 6H33.85C34.9546 6 35.85 6.89543 35.85 8V10.75C35.85 11.8546 34.9546 12.75 33.85 12.75H29.15C28.0455 12.75 27.15 13.6454 27.15 14.75V34.5C27.15 36.6 26.425 38.375 24.975 39.825C23.525 41.275 21.75 42 19.65 42Z" fill="white"/>
</svg>
