<svg width="64" height="64" viewBox="0 0 64 64" fill="none" xmlns="http://www.w3.org/2000/svg">
<path d="M8 26.0003C8 24.8958 8.89543 24.0003 10 24.0003H17.8382C18.3687 24.0003 18.8774 23.7896 19.2525 23.4145L28.5858 14.0812C29.8457 12.8213 32 13.7136 32 15.4954V48.5052C32 50.287 29.8457 51.1794 28.5858 49.9194L19.2525 40.5861C18.8774 40.211 18.3687 40.0003 17.8382 40.0003H10C8.89543 40.0003 8 39.1049 8 38.0003V26.0003ZM42.8258 33.4145C43.6068 32.6335 43.6068 31.3672 42.8258 30.5861L38.7475 26.5079C37.9665 25.7268 37.9665 24.4605 38.7475 23.6794L39.6791 22.7479C40.4602 21.9668 41.7265 21.9668 42.5075 22.7479L46.5858 26.8261C47.3668 27.6072 48.6332 27.6072 49.4142 26.8261L53.4925 22.7479C54.2735 21.9668 55.5398 21.9668 56.3209 22.7479L57.2525 23.6794C58.0335 24.4605 58.0335 25.7268 57.2525 26.5079L53.1742 30.5861C52.3932 31.3672 52.3932 32.6335 53.1742 33.4145L57.2525 37.4928C58.0335 38.2738 58.0335 39.5402 57.2525 40.3212L56.3209 41.2528C55.5398 42.0338 54.2735 42.0338 53.4925 41.2528L49.4142 37.1745C48.6332 36.3935 47.3668 36.3935 46.5858 37.1745L42.5075 41.2528C41.7265 42.0338 40.4602 42.0338 39.6791 41.2528L38.7475 40.3212C37.9665 39.5402 37.9665 38.2738 38.7475 37.4928L42.8258 33.4145Z" fill="white"/>
</svg>
