<svg width="64" height="64" viewBox="0 0 64 64" fill="none" xmlns="http://www.w3.org/2000/svg">
<path d="M39.744 9.29689C38.5292 8.8822 37.3333 9.83577 37.3333 11.1194V12.6151C37.3333 13.5 37.9193 14.2693 38.7443 14.5892C45.7172 17.2927 50.6667 24.0716 50.6667 31.9999C50.6667 39.9282 45.7172 46.6837 38.7444 49.3843C37.9193 49.7038 37.3333 50.4733 37.3333 51.3581V52.8805C37.3333 54.1641 38.5292 55.1177 39.744 54.703C49.1829 51.4809 56 42.5358 56 31.9999C56 21.4641 49.1829 12.519 39.744 9.29689ZM44 31.9999C44 28.4278 42.4727 25.2375 39.9959 23.0417C38.8869 22.0585 37.3333 22.988 37.3333 24.4701V39.5072C37.3333 40.9752 38.8619 41.9063 39.9696 40.9429C42.4618 38.7752 44 35.5645 44 31.9999ZM10 23.9999C8.89543 23.9999 8 24.8954 8 25.9999V37.9999C8 39.1045 8.89543 39.9999 10 39.9999H17.8382C18.3687 39.9999 18.8774 40.2107 19.2525 40.5857L28.5858 49.9191C29.8457 51.179 32 50.2867 32 48.5049V15.495C32 13.7132 29.8457 12.8209 28.5858 14.0808L19.2525 23.4142C18.8774 23.7892 18.3687 23.9999 17.8382 23.9999H10Z" fill="white"/>
</svg>
