<svg width="64" height="64" viewBox="0 0 64 64" fill="none" xmlns="http://www.w3.org/2000/svg">
<path d="M13.3335 24.0003V38.0003C13.3335 39.1049 14.2289 40.0003 15.3335 40.0003H23.1717C23.7022 40.0003 24.2109 40.211 24.5859 40.5861L33.9193 49.9194C35.1792 51.1794 37.3335 50.287 37.3335 48.5052V15.4954C37.3335 13.7136 35.1792 12.8213 33.9193 14.0812L24.0002 24.0003M49.3335 32.0003C49.3335 28.4282 47.8061 25.2379 45.3294 23.0421C44.2204 22.0589 42.6668 22.9884 42.6668 24.4705V39.5076C42.6668 40.9756 44.1954 41.9067 45.3031 40.9433C47.7953 38.7756 49.3335 35.5648 49.3335 32.0003Z" fill="white"/>
</svg>
